# xmcd CD database file
#
# Track frame offsets:
#	150
#	13292
#	25605
#	40428
#	56380
#	70104
#	85158
#	98508
#	116900
#	127079
#	141321
#	153659
#	170109
#	204062
#	221490
#
# Disc length: 3135 seconds
#
# Revision: 0
# Processed by: cddbd v1.5.2PL0 Copyright (c) Steve Scherf et al.
# Submitted via: CDex 1.51
#
DISCID=d30c3d0f
DTITLE=Lance James - Vriendskap
DYEAR=1997
DGENRE=Country
TTITLE0=Gee Ons Liefde, Gee Ons Hoop
TTITLE1=Vriendskap
TTITLE2=Die Ou Familiebybel
TTITLE3=Bly By My
TTITLE4=Liefde Se Lenteroos
TTITLE5=Ou Pelgrimsrus
TTITLE6=Kos Sans Op Die Tafel
TTITLE7=Sonskynrose
TTITLE8=Lewe Jou Dood
TTITLE9=Die Einde Van Die 20ste Eeu
TTITLE10=Roses And Violets
TTITLE11=Sonskyn En Goud
TTITLE12=Irish Medley
TTITLE13=Hantamberge
TTITLE14=This World Is Not My Home
EXTD=YEAR: 1997
EXTT0=
EXTT1=
EXTT2=
EXTT3=
EXTT4=
EXTT5=
EXTT6=
EXTT7=
EXTT8=
EXTT9=
EXTT10=
EXTT11=
EXTT12=
EXTT13=
EXTT14=
PLAYORDER=
